<svg width="140" height="92" viewBox="0 0 140 92" fill="none" xmlns="http://www.w3.org/2000/svg">
<path d="M48.1282 0.536423V73.8899H33.6898V41.5385H14.4385V73.8899H0V0.536423H14.4385V29.4512H33.6898V0.536423H48.1282Z" fill="black"/>
<path d="M51.8224 74.0505V61.9632H51.7879V12.7844H51.8224V0.697077H82.0735V12.7844H66.3438V61.9632H82.0735V74.0505H51.8224Z" fill="black"/>
<path d="M62.2905 52.6898C62.5377 52.7389 62.8096 52.7635 63.1063 52.7635C63.4029 52.7635 63.6748 52.7635 63.922 52.7635C65.9985 52.7635 67.7289 52.3706 69.1132 51.5848C70.5469 50.799 71.684 49.7186 72.5245 48.3435C73.4144 46.9684 74.0324 45.3478 74.3785 43.4816C74.774 41.5663 74.9718 39.4791 74.9718 37.22C74.9718 35.2556 74.8234 33.3402 74.5268 31.474C74.2302 29.6078 73.7111 27.9626 72.9695 26.5384C72.2279 25.1142 71.2144 23.9847 69.9289 23.1498C68.6435 22.2658 66.9873 21.8238 64.9603 21.8238C64.5647 21.8238 64.1198 21.8484 63.6254 21.8975C63.131 21.8975 62.686 21.9466 62.2905 22.0448V52.6898ZM84.2417 37.22C84.2417 41.4435 83.6978 45.0531 82.6102 48.0489C81.5719 50.9955 80.1135 53.4019 78.2348 55.2681C76.3561 57.1343 74.1066 58.5094 71.4863 59.3934C68.9154 60.2283 66.0726 60.6457 62.958 60.6457C61.3265 60.6457 59.7197 60.5475 58.1376 60.3511C56.605 60.2037 54.9487 59.9336 53.1689 59.5407V15.0465C55.2454 14.6045 57.1982 14.3099 59.0275 14.1625C60.8568 14.0152 62.5624 13.9415 64.1445 13.9415C67.1603 13.9415 69.9042 14.3835 72.3762 15.2675C74.8976 16.1515 77.0235 17.5512 78.7539 19.4665C80.4843 21.3327 81.8191 23.7391 82.7585 26.6857C83.7473 29.5833 84.2417 33.0947 84.2417 37.22Z" fill="black"/>
<path d="M10.3096 54.372C10.3096 56.1849 10.37 57.897 10.4907 59.5084C10.6517 61.0795 10.9335 62.4492 11.3361 63.6175C11.7788 64.7858 12.3827 65.7123 13.1475 66.3972C13.9123 67.082 14.9388 67.4244 16.2269 67.4244C17.4747 67.4244 18.4811 67.082 19.2459 66.3972C20.051 65.7123 20.6548 64.7858 21.0573 63.6175C21.5001 62.4089 21.7819 61.0191 21.9026 59.448C22.0637 57.8768 22.1442 56.1849 22.1442 54.372C22.1442 52.5592 22.0637 50.8672 21.9026 49.2961C21.7819 47.6847 21.5001 46.2949 21.0573 45.1266C20.6548 43.9583 20.0711 43.0318 19.3063 42.3469C18.5415 41.6621 17.515 41.3196 16.2269 41.3196C14.9388 41.3196 13.9123 41.6621 13.1475 42.3469C12.3827 43.0318 11.7788 43.9785 11.3361 45.187C10.9335 46.3553 10.6517 47.725 10.4907 49.2961C10.37 50.8672 10.3096 52.5592 10.3096 54.372ZM2.76202 54.372C2.76202 47.9264 3.94951 43.072 6.32447 39.8089C8.69944 36.5056 12.0002 34.8539 16.2269 34.8539C20.6145 34.8539 23.9556 36.5056 26.25 39.8089C28.5445 43.072 29.6917 47.9264 29.6917 54.372C29.6917 60.8177 28.5244 65.6922 26.1897 68.9956C23.855 72.2587 20.5541 73.8902 16.2873 73.8902C11.8996 73.8902 8.53842 72.2587 6.20371 68.9956C3.90925 65.6922 2.76202 60.8177 2.76202 54.372Z" fill="black"/>
<path fill-rule="evenodd" clip-rule="evenodd" d="M16.2269 35.2024C12.1049 35.2024 8.91051 36.8053 6.60389 40.0137L6.6027 40.0153C4.29025 43.1925 3.10728 47.96 3.10728 54.372C3.10728 60.784 4.24994 65.5742 6.48496 68.7934C8.74749 71.9544 11.9984 73.5417 16.2873 73.5417C20.4521 73.5417 23.6447 71.9569 25.9093 68.7922C28.1837 65.5734 29.3465 60.7839 29.3465 54.372C29.3465 47.9582 28.2031 43.1887 25.9685 40.0107L25.9674 40.009C23.7446 36.8089 20.5148 35.2024 16.2269 35.2024ZM6.04563 39.6034C8.4889 36.2055 11.8959 34.5053 16.2269 34.5053C20.7139 34.5053 24.1661 36.202 26.5322 39.6081C28.8861 42.9563 30.037 47.8952 30.037 54.372C30.037 60.8508 28.8653 65.81 26.4707 69.198L26.4695 69.1996C24.0648 72.5607 20.6559 74.2387 16.2873 74.2387C11.8017 74.2387 8.33067 72.5635 5.92383 69.1996L5.921 69.1957C3.56805 65.8081 2.41677 60.8499 2.41677 54.372C2.41677 47.8934 3.60856 42.9524 6.04563 39.6034ZM12.9184 42.0862C13.7615 41.3312 14.877 40.9711 16.2269 40.9711C17.5767 40.9711 18.6923 41.3312 19.5354 42.0862C20.3513 42.8167 20.9636 43.7959 21.3817 45.007C21.8377 46.2122 22.1239 47.6335 22.2466 49.265C22.4086 50.8483 22.4894 52.5508 22.4894 54.372C22.4894 56.1934 22.4086 57.896 22.2465 59.4794C22.1237 61.0726 21.8372 62.4926 21.3823 63.7353C20.9633 64.9498 20.3291 65.9304 19.4717 66.6608C18.631 67.4121 17.538 67.773 16.2269 67.773C14.877 67.773 13.7615 67.4129 12.9184 66.6579C12.1041 65.9288 11.4721 64.9516 11.0136 63.742L11.0117 63.737L11.01 63.732C10.5966 62.5324 10.3104 61.1352 10.1473 59.5443L10.1463 59.5347C10.0248 57.9136 9.96433 56.1926 9.96433 54.372C9.96433 52.5515 10.025 50.8504 10.1465 49.2691L10.1472 49.2602C10.3102 47.6693 10.5966 46.2721 11.01 45.0725L11.0122 45.0661C11.4699 43.8169 12.1018 42.8174 12.9184 42.0862ZM16.2269 41.6682C15.0005 41.6682 14.0631 41.9929 13.3766 42.6077C12.6642 43.2456 12.0888 44.1384 11.661 45.3047C11.2702 46.4399 10.9935 47.7796 10.8346 49.3275C10.7149 50.8872 10.6548 52.5686 10.6548 54.372C10.6548 56.1753 10.7148 57.877 10.8346 59.4773C10.9935 61.0243 11.27 62.3632 11.6604 63.4979C12.0873 64.6224 12.6622 65.4968 13.3766 66.1364C14.0631 66.7511 15.0005 67.0759 16.2269 67.0759C17.4098 67.0759 18.3283 66.7529 19.0168 66.1364L19.0234 66.1305C19.7737 65.4923 20.3457 64.6219 20.7312 63.503L20.7334 63.4965C21.163 62.324 21.4396 60.9669 21.5584 59.421L21.5591 59.4121C21.7187 57.8545 21.7989 56.1746 21.7989 54.372C21.7989 52.5695 21.7189 50.8896 21.5592 49.332L21.5582 49.3224C21.4393 47.7354 21.1628 46.3803 20.7349 45.2511L20.733 45.2461L20.7312 45.2411C20.3443 44.118 19.7898 43.2458 19.0772 42.6077C18.3907 41.9929 17.4533 41.6682 16.2269 41.6682Z" fill="black"/>
<path d="M112.532 33.5364C113.393 31.7193 114.371 29.4283 115.466 26.6632C116.64 23.8981 117.775 20.9751 118.871 17.894C120.044 14.8129 121.14 11.6923 122.157 8.53222C123.253 5.37214 124.231 2.52807 125.092 0H140C138.513 4.02911 137.026 7.9397 135.539 11.7318C134.052 15.5239 132.487 19.2765 130.844 22.9896C129.201 26.7027 127.44 30.4158 125.562 34.1289C123.683 37.763 121.649 41.5156 119.457 45.3867V73.3534H104.902V45.5052C100.597 37.842 96.802 30.3763 93.5152 23.1081C90.3066 15.7609 87.2155 8.05821 84.2417 0H99.7366C101.537 5.68815 103.532 11.4948 105.723 17.42C107.915 23.2661 110.184 28.6383 112.532 33.5364Z" fill="black"/>
<path d="M98.7423 10.4562H128.434V20.2152H98.7423V10.4562Z" fill="black"/>
<path d="M0.994 89.6468V80.1358L2.156 79.9397V83.2454C2.34267 83.1707 2.55267 83.1147 2.786 83.0773C3.01933 83.0307 3.248 83.0073 3.472 83.0073C3.96667 83.0073 4.37733 83.082 4.704 83.2314C5.04 83.3715 5.306 83.5723 5.502 83.8337C5.698 84.0952 5.838 84.408 5.922 84.7722C6.006 85.1364 6.048 85.538 6.048 85.9769V89.6468H4.9V86.229C4.9 85.4259 4.788 84.8609 4.564 84.5341C4.34 84.1979 3.93867 84.0298 3.36 84.0298C3.11733 84.0298 2.87933 84.0579 2.646 84.1139C2.422 84.1606 2.25867 84.2073 2.156 84.254V89.6468H0.994Z" fill="black"/>
<path d="M13.44 86.3971C13.44 86.9107 13.3653 87.3776 13.216 87.7978C13.076 88.2087 12.8753 88.5635 12.614 88.8624C12.3527 89.1612 12.04 89.3946 11.676 89.5627C11.312 89.7215 10.9153 89.8009 10.486 89.8009C10.066 89.8009 9.674 89.7215 9.31 89.5627C8.95533 89.3946 8.64733 89.1612 8.386 88.8624C8.12467 88.5635 7.91933 88.2087 7.77 87.7978C7.63 87.3776 7.56 86.9107 7.56 86.3971C7.56 85.8835 7.63 85.4166 7.77 84.9963C7.91933 84.5761 8.12467 84.2213 8.386 83.9318C8.64733 83.633 8.95533 83.4042 9.31 83.2454C9.674 83.0773 10.066 82.9933 10.486 82.9933C10.9153 82.9933 11.312 83.0773 11.676 83.2454C12.04 83.4042 12.3527 83.633 12.614 83.9318C12.8753 84.2213 13.076 84.5761 13.216 84.9963C13.3653 85.4166 13.44 85.8835 13.44 86.3971ZM12.25 86.3971C12.25 85.6594 12.0913 85.0804 11.774 84.6602C11.4567 84.2306 11.0273 84.0158 10.486 84.0158C9.954 84.0158 9.52933 84.2306 9.212 84.6602C8.904 85.0804 8.75 85.6594 8.75 86.3971C8.75 87.1255 8.904 87.7044 9.212 88.134C9.52933 88.5542 9.954 88.7643 10.486 88.7643C11.0273 88.7643 11.4567 88.5542 11.774 88.134C12.0913 87.7044 12.25 87.1255 12.25 86.3971Z" fill="black"/>
<path d="M18.732 89.8009C18.3213 89.8009 17.9807 89.7448 17.71 89.6328C17.4393 89.5207 17.2247 89.3526 17.066 89.1285C16.9073 88.9044 16.7953 88.6289 16.73 88.3021C16.6647 87.9659 16.632 87.5784 16.632 87.1395V80.9903H14.756V80.0097H17.78V87.1395C17.78 87.4663 17.7987 87.7324 17.836 87.9379C17.8827 88.1433 17.948 88.3114 18.032 88.4421C18.1253 88.5635 18.2373 88.6476 18.368 88.6943C18.4987 88.741 18.6527 88.7643 18.83 88.7643C19.1007 88.7643 19.3527 88.7316 19.586 88.6663C19.8193 88.6009 20.0013 88.5309 20.132 88.4562L20.3 89.4367C20.244 89.4647 20.1647 89.502 20.062 89.5487C19.9593 89.5861 19.838 89.6234 19.698 89.6608C19.558 89.6981 19.404 89.7308 19.236 89.7588C19.0773 89.7868 18.9093 89.8009 18.732 89.8009Z" fill="black"/>
<path d="M23.926 82.1389C23.6833 82.1389 23.4733 82.0548 23.296 81.8867C23.1187 81.7186 23.03 81.4899 23.03 81.2004C23.03 80.9109 23.1187 80.6821 23.296 80.514C23.4733 80.3459 23.6833 80.2619 23.926 80.2619C24.178 80.2619 24.388 80.3459 24.556 80.514C24.7333 80.6821 24.822 80.9109 24.822 81.2004C24.822 81.4899 24.7333 81.7186 24.556 81.8867C24.388 82.0548 24.178 82.1389 23.926 82.1389ZM23.632 84.1139H21.756V83.1474H24.78V87.1395C24.78 87.7838 24.8687 88.218 25.046 88.4421C25.2233 88.6569 25.4893 88.7643 25.844 88.7643C26.1147 88.7643 26.362 88.7316 26.586 88.6663C26.8193 88.6009 27.0013 88.5309 27.132 88.4562L27.3 89.4367C27.244 89.4647 27.1647 89.502 27.062 89.5487C26.9593 89.5861 26.838 89.6234 26.698 89.6608C26.5673 89.6981 26.418 89.7308 26.25 89.7588C26.0913 89.7868 25.9233 89.8009 25.746 89.8009C25.3353 89.8009 24.9947 89.7448 24.724 89.6328C24.4533 89.5207 24.234 89.3526 24.066 89.1285C23.9073 88.9044 23.7953 88.6289 23.73 88.3021C23.6647 87.9659 23.632 87.5784 23.632 87.1395V84.1139Z" fill="black"/>
<path d="M32.844 84.5201C32.7133 84.3987 32.522 84.2866 32.27 84.1839C32.018 84.0719 31.7567 84.0158 31.486 84.0158C31.178 84.0158 30.912 84.0765 30.688 84.1979C30.4733 84.3193 30.296 84.4874 30.156 84.7022C30.016 84.9076 29.9133 85.1598 29.848 85.4586C29.7827 85.7481 29.75 86.0609 29.75 86.3971C29.75 87.1535 29.9273 87.7371 30.282 88.148C30.6367 88.5589 31.0987 88.7643 31.668 88.7643C31.9573 88.7643 32.2 88.7503 32.396 88.7223C32.6013 88.6943 32.7507 88.6663 32.844 88.6382V84.5201ZM32.844 80.1358L34.006 79.9397V89.4647C33.754 89.5394 33.432 89.6141 33.04 89.6888C32.648 89.7635 32.1907 89.8009 31.668 89.8009C31.2013 89.8009 30.7767 89.7215 30.394 89.5627C30.0113 89.404 29.6847 89.1799 29.414 88.8904C29.1433 88.5916 28.9333 88.232 28.784 87.8118C28.6347 87.3916 28.56 86.92 28.56 86.3971C28.56 85.8928 28.6207 85.4352 28.742 85.0244C28.8727 84.6041 29.0593 84.2446 29.302 83.9458C29.5447 83.647 29.834 83.4135 30.17 83.2454C30.5153 83.0773 30.9073 82.9933 31.346 82.9933C31.6913 82.9933 31.9947 83.0353 32.256 83.1194C32.5173 83.2034 32.7133 83.2921 32.844 83.3855V80.1358Z" fill="black"/>
<path d="M38.57 88.8203C38.8593 88.8203 39.116 88.811 39.34 88.7923C39.5733 88.7737 39.7647 88.7503 39.914 88.7223V86.7893C39.7647 86.7426 39.5827 86.7052 39.368 86.6772C39.1627 86.6492 38.9433 86.6352 38.71 86.6352C38.4953 86.6352 38.2853 86.6539 38.08 86.6912C37.8747 86.7192 37.6927 86.7753 37.534 86.8593C37.3753 86.9434 37.2447 87.0554 37.142 87.1955C37.0393 87.3262 36.988 87.4943 36.988 87.6998C36.988 88.12 37.128 88.4141 37.408 88.5822C37.6973 88.741 38.0847 88.8203 38.57 88.8203ZM38.458 82.9933C38.9433 82.9933 39.3493 83.054 39.676 83.1754C40.012 83.2968 40.2827 83.4649 40.488 83.6797C40.6933 83.8944 40.838 84.1559 40.922 84.4641C41.006 84.7722 41.048 85.1084 41.048 85.4726V89.5347C40.7773 89.5814 40.418 89.6374 39.97 89.7028C39.5313 89.7682 39.0787 89.8009 38.612 89.8009C38.2573 89.8009 37.912 89.7682 37.576 89.7028C37.24 89.6468 36.9413 89.5441 36.68 89.3946C36.4187 89.2359 36.2087 89.0211 36.05 88.7503C35.8913 88.4795 35.812 88.134 35.812 87.7138C35.812 87.3402 35.8913 87.0274 36.05 86.7753C36.218 86.5138 36.428 86.3037 36.68 86.145C36.9413 85.9862 37.2353 85.8741 37.562 85.8088C37.898 85.7341 38.234 85.6967 38.57 85.6967C39.0273 85.6967 39.4753 85.7481 39.914 85.8508V85.5286C39.914 85.3325 39.8907 85.1458 39.844 84.9683C39.8067 84.7816 39.7273 84.6135 39.606 84.4641C39.494 84.3147 39.3353 84.1979 39.13 84.1139C38.934 84.0205 38.6773 83.9738 38.36 83.9738C37.9587 83.9738 37.6087 84.0018 37.31 84.0579C37.0113 84.1139 36.7827 84.1699 36.624 84.2259L36.484 83.2735C36.6427 83.1987 36.904 83.1334 37.268 83.0773C37.6413 83.0213 38.038 82.9933 38.458 82.9933Z" fill="black"/>
<path d="M42.714 90.8654C42.798 90.9121 42.9147 90.9494 43.064 90.9775C43.2227 91.0055 43.3673 91.0195 43.498 91.0195C43.9553 91.0195 44.31 90.9168 44.562 90.7113C44.8233 90.5152 45.0613 90.1884 45.276 89.7308C44.7533 88.741 44.2633 87.6811 43.806 86.5512C43.3487 85.4119 42.9707 84.2773 42.672 83.1474H43.932C44.0253 83.5209 44.1327 83.9271 44.254 84.366C44.3847 84.7956 44.5293 85.2391 44.688 85.6967C44.8467 86.1543 45.0147 86.6165 45.192 87.0834C45.3787 87.541 45.5747 87.9799 45.78 88.4001C45.9293 87.9706 46.0693 87.5457 46.2 87.1255C46.3307 86.7052 46.452 86.285 46.564 85.8648C46.676 85.4352 46.788 85.001 46.9 84.5621C47.012 84.1139 47.1287 83.6423 47.25 83.1474H48.454C48.1553 84.3614 47.8193 85.538 47.446 86.6772C47.082 87.8165 46.69 88.8717 46.27 89.8429C46.1113 90.2164 45.9387 90.5386 45.752 90.8094C45.5747 91.0802 45.3787 91.3043 45.164 91.4817C44.9493 91.6592 44.7067 91.7899 44.436 91.8739C44.1653 91.958 43.8573 92 43.512 92C43.3347 92 43.1387 91.9767 42.924 91.93C42.7187 91.8833 42.5787 91.8413 42.504 91.8039L42.714 90.8654Z" fill="black"/>
<path d="M59.402 83.1474H62.146V84.1139H59.402V87.1395C59.402 87.4663 59.4253 87.7324 59.472 87.9379C59.5187 88.1433 59.5933 88.3114 59.696 88.4421C59.808 88.5635 59.948 88.6476 60.116 88.6943C60.284 88.741 60.4893 88.7643 60.732 88.7643C61.068 88.7643 61.3387 88.7363 61.544 88.6803C61.7493 88.6242 61.9453 88.5495 62.132 88.4562L62.3 89.4367C62.1693 89.4927 61.9593 89.5674 61.67 89.6608C61.39 89.7542 61.04 89.8009 60.62 89.8009C60.1347 89.8009 59.738 89.7448 59.43 89.6328C59.122 89.5207 58.8793 89.3526 58.702 89.1285C58.534 88.9044 58.4173 88.6289 58.352 88.3021C58.2867 87.9659 58.254 87.5784 58.254 87.1395V84.1139H56.882V83.1474H58.254V81.3264L59.402 81.1303V83.1474Z" fill="black"/>
<path d="M66.57 88.8203C66.8593 88.8203 67.116 88.811 67.34 88.7923C67.5733 88.7737 67.7647 88.7503 67.914 88.7223V86.7893C67.7647 86.7426 67.5827 86.7052 67.368 86.6772C67.1627 86.6492 66.9433 86.6352 66.71 86.6352C66.4953 86.6352 66.2853 86.6539 66.08 86.6912C65.8747 86.7192 65.6927 86.7753 65.534 86.8593C65.3753 86.9434 65.2447 87.0554 65.142 87.1955C65.0393 87.3262 64.988 87.4943 64.988 87.6998C64.988 88.12 65.128 88.4141 65.408 88.5822C65.6973 88.741 66.0847 88.8203 66.57 88.8203ZM66.458 82.9933C66.9433 82.9933 67.3493 83.054 67.676 83.1754C68.012 83.2968 68.2827 83.4649 68.488 83.6797C68.6933 83.8944 68.838 84.1559 68.922 84.4641C69.006 84.7722 69.048 85.1084 69.048 85.4726V89.5347C68.7773 89.5814 68.418 89.6374 67.97 89.7028C67.5313 89.7682 67.0787 89.8009 66.612 89.8009C66.2573 89.8009 65.912 89.7682 65.576 89.7028C65.24 89.6468 64.9413 89.5441 64.68 89.3946C64.4187 89.2359 64.2087 89.0211 64.05 88.7503C63.8913 88.4795 63.812 88.134 63.812 87.7138C63.812 87.3402 63.8913 87.0274 64.05 86.7753C64.218 86.5138 64.428 86.3037 64.68 86.145C64.9413 85.9862 65.2353 85.8741 65.562 85.8088C65.898 85.7341 66.234 85.6967 66.57 85.6967C67.0273 85.6967 67.4753 85.7481 67.914 85.8508V85.5286C67.914 85.3325 67.8907 85.1458 67.844 84.9683C67.8067 84.7816 67.7273 84.6135 67.606 84.4641C67.494 84.3147 67.3353 84.1979 67.13 84.1139C66.934 84.0205 66.6773 83.9738 66.36 83.9738C65.9587 83.9738 65.6087 84.0018 65.31 84.0579C65.0113 84.1139 64.7827 84.1699 64.624 84.2259L64.484 83.2735C64.6427 83.1987 64.904 83.1334 65.268 83.0773C65.6413 83.0213 66.038 82.9933 66.458 82.9933Z" fill="black"/>
<path d="M74.914 88.0219C74.914 87.7885 74.816 87.597 74.62 87.4476C74.4333 87.2982 74.1953 87.1675 73.906 87.0554C73.626 86.9434 73.318 86.836 72.982 86.7333C72.646 86.6212 72.3333 86.4858 72.044 86.327C71.764 86.1683 71.526 85.9722 71.33 85.7387C71.1433 85.5053 71.05 85.2018 71.05 84.8283C71.05 84.3053 71.26 83.8711 71.68 83.5256C72.1093 83.1707 72.7767 82.9933 73.682 82.9933C74.0367 82.9933 74.4007 83.0213 74.774 83.0773C75.1567 83.124 75.4833 83.1894 75.754 83.2735L75.544 84.31C75.4693 84.2726 75.3667 84.2353 75.236 84.1979C75.1053 84.1512 74.956 84.1139 74.788 84.0859C74.62 84.0485 74.438 84.0205 74.242 84.0018C74.0553 83.9832 73.8733 83.9738 73.696 83.9738C72.688 83.9738 72.184 84.2493 72.184 84.8002C72.184 84.9963 72.2773 85.1644 72.464 85.3045C72.66 85.4352 72.9027 85.5566 73.192 85.6687C73.4813 85.7808 73.794 85.8975 74.13 86.0189C74.466 86.1309 74.7787 86.271 75.068 86.4391C75.3573 86.6072 75.5953 86.8126 75.782 87.0554C75.978 87.2889 76.076 87.5877 76.076 87.9519C76.076 88.5402 75.8473 88.9978 75.39 89.3246C74.9327 89.6421 74.2093 89.8009 73.22 89.8009C72.772 89.8009 72.3613 89.7635 71.988 89.6888C71.6147 89.6141 71.26 89.502 70.924 89.3526L71.148 88.3021C71.4747 88.4515 71.8153 88.5776 72.17 88.6803C72.534 88.7737 72.9213 88.8203 73.332 88.8203C74.3867 88.8203 74.914 88.5542 74.914 88.0219Z" fill="black"/>
<path d="M80.332 86.0749C80.584 86.2617 80.8687 86.4998 81.186 86.7893C81.5033 87.0694 81.816 87.3729 82.124 87.6998C82.4413 88.0266 82.74 88.3628 83.02 88.7083C83.3 89.0445 83.524 89.3573 83.692 89.6468H82.32C82.1427 89.3573 81.9233 89.0631 81.662 88.7643C81.4007 88.4562 81.1207 88.162 80.822 87.8819C80.5327 87.6017 80.2387 87.3449 79.94 87.1115C79.6507 86.878 79.3893 86.6819 79.156 86.5231V89.6468H77.994V80.1358L79.156 79.9397V85.8648C79.6693 85.4166 80.1827 84.973 80.696 84.5341C81.2093 84.0859 81.6713 83.6236 82.082 83.1474H83.44C83.0387 83.6236 82.5533 84.1139 81.984 84.6181C81.424 85.1224 80.8733 85.608 80.332 86.0749Z" fill="black"/>
<path d="M91.574 83.3295C92.134 83.1147 92.6613 83.0073 93.156 83.0073C93.4267 83.0073 93.6787 83.0493 93.912 83.1334C94.1547 83.2081 94.36 83.3295 94.528 83.4976C94.9293 83.1707 95.3587 83.0073 95.816 83.0073C96.04 83.0073 96.25 83.0493 96.446 83.1334C96.6513 83.2174 96.8287 83.3435 96.978 83.5116C97.1367 83.6797 97.2627 83.8898 97.356 84.1419C97.4493 84.394 97.496 84.6882 97.496 85.0244V89.6468H96.446V84.9963C96.446 84.6602 96.3713 84.4034 96.222 84.2259C96.0727 84.0485 95.886 83.9598 95.662 83.9598C95.55 83.9598 95.4333 83.9878 95.312 84.0439C95.1907 84.0999 95.0787 84.1886 94.976 84.31C95.032 84.5248 95.06 84.7629 95.06 85.0244V87.1395H94.01V85.0104C94.01 84.6835 93.9587 84.4267 93.856 84.24C93.7533 84.0532 93.5527 83.9598 93.254 83.9598C93.0673 83.9598 92.8573 84.0018 92.624 84.0859V89.6468H91.574V83.3295Z" fill="black"/>
<path d="M101.57 88.8203C101.859 88.8203 102.116 88.811 102.34 88.7923C102.573 88.7737 102.765 88.7503 102.914 88.7223V86.7893C102.765 86.7426 102.583 86.7052 102.368 86.6772C102.163 86.6492 101.943 86.6352 101.71 86.6352C101.495 86.6352 101.285 86.6539 101.08 86.6912C100.875 86.7192 100.693 86.7753 100.534 86.8593C100.375 86.9434 100.245 87.0554 100.142 87.1955C100.039 87.3262 99.988 87.4943 99.988 87.6998C99.988 88.12 100.128 88.4141 100.408 88.5822C100.697 88.741 101.085 88.8203 101.57 88.8203ZM101.458 82.9933C101.943 82.9933 102.349 83.054 102.676 83.1754C103.012 83.2968 103.283 83.4649 103.488 83.6797C103.693 83.8944 103.838 84.1559 103.922 84.4641C104.006 84.7722 104.048 85.1084 104.048 85.4726V89.5347C103.777 89.5814 103.418 89.6374 102.97 89.7028C102.531 89.7682 102.079 89.8009 101.612 89.8009C101.257 89.8009 100.912 89.7682 100.576 89.7028C100.24 89.6468 99.9413 89.5441 99.68 89.3946C99.4187 89.2359 99.2087 89.0211 99.05 88.7503C98.8913 88.4795 98.812 88.134 98.812 87.7138C98.812 87.3402 98.8913 87.0274 99.05 86.7753C99.218 86.5138 99.428 86.3037 99.68 86.145C99.9413 85.9862 100.235 85.8741 100.562 85.8088C100.898 85.7341 101.234 85.6967 101.57 85.6967C102.027 85.6967 102.475 85.7481 102.914 85.8508V85.5286C102.914 85.3325 102.891 85.1458 102.844 84.9683C102.807 84.7816 102.727 84.6135 102.606 84.4641C102.494 84.3147 102.335 84.1979 102.13 84.1139C101.934 84.0205 101.677 83.9738 101.36 83.9738C100.959 83.9738 100.609 84.0018 100.31 84.0579C100.011 84.1139 99.7827 84.1699 99.624 84.2259L99.484 83.2735C99.6427 83.1987 99.904 83.1334 100.268 83.0773C100.641 83.0213 101.038 82.9933 101.458 82.9933Z" fill="black"/>
<path d="M105.994 83.3295C106.414 83.2268 106.829 83.1474 107.24 83.0914C107.66 83.0353 108.052 83.0073 108.416 83.0073C109.284 83.0073 109.937 83.2314 110.376 83.6797C110.824 84.1279 111.048 84.8469 111.048 85.8368V89.6468H109.9V86.0469C109.9 85.6267 109.863 85.2858 109.788 85.0244C109.713 84.7629 109.606 84.5621 109.466 84.4221C109.335 84.2726 109.172 84.1699 108.976 84.1139C108.789 84.0579 108.584 84.0298 108.36 84.0298C108.173 84.0298 107.973 84.0439 107.758 84.0719C107.553 84.0905 107.352 84.1186 107.156 84.1559V89.6468H105.994V83.3295Z" fill="black"/>
<path d="M115.57 88.8203C115.859 88.8203 116.116 88.811 116.34 88.7923C116.573 88.7737 116.765 88.7503 116.914 88.7223V86.7893C116.765 86.7426 116.583 86.7052 116.368 86.6772C116.163 86.6492 115.943 86.6352 115.71 86.6352C115.495 86.6352 115.285 86.6539 115.08 86.6912C114.875 86.7192 114.693 86.7753 114.534 86.8593C114.375 86.9434 114.245 87.0554 114.142 87.1955C114.039 87.3262 113.988 87.4943 113.988 87.6998C113.988 88.12 114.128 88.4141 114.408 88.5822C114.697 88.741 115.085 88.8203 115.57 88.8203ZM115.458 82.9933C115.943 82.9933 116.349 83.054 116.676 83.1754C117.012 83.2968 117.283 83.4649 117.488 83.6797C117.693 83.8944 117.838 84.1559 117.922 84.4641C118.006 84.7722 118.048 85.1084 118.048 85.4726V89.5347C117.777 89.5814 117.418 89.6374 116.97 89.7028C116.531 89.7682 116.079 89.8009 115.612 89.8009C115.257 89.8009 114.912 89.7682 114.576 89.7028C114.24 89.6468 113.941 89.5441 113.68 89.3946C113.419 89.2359 113.209 89.0211 113.05 88.7503C112.891 88.4795 112.812 88.134 112.812 87.7138C112.812 87.3402 112.891 87.0274 113.05 86.7753C113.218 86.5138 113.428 86.3037 113.68 86.145C113.941 85.9862 114.235 85.8741 114.562 85.8088C114.898 85.7341 115.234 85.6967 115.57 85.6967C116.027 85.6967 116.475 85.7481 116.914 85.8508V85.5286C116.914 85.3325 116.891 85.1458 116.844 84.9683C116.807 84.7816 116.727 84.6135 116.606 84.4641C116.494 84.3147 116.335 84.1979 116.13 84.1139C115.934 84.0205 115.677 83.9738 115.36 83.9738C114.959 83.9738 114.609 84.0018 114.31 84.0579C114.011 84.1139 113.783 84.1699 113.624 84.2259L113.484 83.2735C113.643 83.1987 113.904 83.1334 114.268 83.0773C114.641 83.0213 115.038 82.9933 115.458 82.9933Z" fill="black"/>
<path d="M123.844 89.0445C123.713 89.1192 123.513 89.1985 123.242 89.2826C122.971 89.3666 122.659 89.4087 122.304 89.4087C121.921 89.4087 121.562 89.348 121.226 89.2266C120.899 89.0958 120.61 88.9044 120.358 88.6523C120.115 88.3908 119.919 88.0639 119.77 87.6717C119.63 87.2702 119.56 86.7986 119.56 86.257C119.56 85.7808 119.625 85.3465 119.756 84.9543C119.896 84.5528 120.092 84.2073 120.344 83.9178C120.605 83.6283 120.923 83.4042 121.296 83.2454C121.669 83.0773 122.094 82.9933 122.57 82.9933C123.13 82.9933 123.606 83.0353 123.998 83.1194C124.399 83.1941 124.735 83.2688 125.006 83.3435V89.1425C125.006 90.151 124.749 90.8794 124.236 91.3276C123.732 91.7759 122.967 92 121.94 92C121.52 92 121.137 91.9673 120.792 91.902C120.456 91.8366 120.157 91.7572 119.896 91.6638L120.106 90.6413C120.349 90.744 120.624 90.8281 120.932 90.8934C121.249 90.9588 121.595 90.9915 121.968 90.9915C122.64 90.9915 123.121 90.8561 123.41 90.5853C123.699 90.3145 123.844 89.8756 123.844 89.2686V89.0445ZM123.844 84.1699C123.732 84.1326 123.578 84.0999 123.382 84.0719C123.186 84.0345 122.92 84.0158 122.584 84.0158C121.987 84.0158 121.529 84.2213 121.212 84.6322C120.904 85.043 120.75 85.5893 120.75 86.271C120.75 86.6445 120.792 86.9667 120.876 87.2375C120.969 87.499 121.091 87.7184 121.24 87.8959C121.399 88.0639 121.576 88.19 121.772 88.2741C121.968 88.3488 122.178 88.3861 122.402 88.3861C122.691 88.3861 122.962 88.3441 123.214 88.26C123.475 88.176 123.685 88.078 123.844 87.9659V84.1699Z" fill="black"/>
<path d="M129.626 82.9933C130.503 82.9933 131.18 83.2688 131.656 83.8197C132.132 84.3614 132.37 85.1878 132.37 86.299V86.7052H127.722C127.769 87.3776 127.988 87.8912 128.38 88.246C128.781 88.5916 129.341 88.7643 130.06 88.7643C130.471 88.7643 130.821 88.7316 131.11 88.6663C131.399 88.6009 131.619 88.5309 131.768 88.4562L131.922 89.4367C131.782 89.5114 131.53 89.5907 131.166 89.6748C130.802 89.7588 130.391 89.8009 129.934 89.8009C129.374 89.8009 128.879 89.7168 128.45 89.5487C128.03 89.3713 127.68 89.1332 127.4 88.8344C127.12 88.5355 126.91 88.1807 126.77 87.7698C126.63 87.3496 126.56 86.8967 126.56 86.4111C126.56 85.8321 126.649 85.3279 126.826 84.8983C127.003 84.4687 127.237 84.1139 127.526 83.8337C127.815 83.5536 128.142 83.3435 128.506 83.2034C128.87 83.0633 129.243 82.9933 129.626 82.9933ZM131.194 85.7667C131.194 85.2158 131.049 84.7816 130.76 84.4641C130.471 84.1372 130.088 83.9738 129.612 83.9738C129.341 83.9738 129.094 84.0252 128.87 84.1279C128.655 84.2306 128.469 84.366 128.31 84.5341C128.151 84.7022 128.025 84.8936 127.932 85.1084C127.839 85.3232 127.778 85.5426 127.75 85.7667H131.194Z" fill="black"/>
<path d="M134.498 89.6468V83.4976C135.45 83.1707 136.411 83.0073 137.382 83.0073C137.681 83.0073 137.965 83.0213 138.236 83.0493C138.507 83.068 138.805 83.1147 139.132 83.1894L138.922 84.2119C138.623 84.1279 138.357 84.0765 138.124 84.0579C137.9 84.0298 137.653 84.0158 137.382 84.0158C136.813 84.0158 136.234 84.0952 135.646 84.254V89.6468H134.498Z" fill="black"/>
</svg>
